<svg width="315" height="53" viewBox="0 0 315 53" fill="none" xmlns="http://www.w3.org/2000/svg">
<path d="M74.328 49.168C77.144 49.168 79.064 47.6107 80.088 44.496H81.496C81.4533 44.6667 81.3893 44.9013 81.304 45.2C81.2613 45.4987 81.0267 46.032 80.6 46.8C80.1733 47.568 79.64 48.2507 79 48.848C78.36 49.4453 77.3787 49.9787 76.056 50.448C74.776 50.9173 73.304 51.152 71.64 51.152C68.056 51.152 65.1547 50.256 62.936 48.464C60.7173 46.7147 58.84 44.048 57.304 40.464L48.408 16.848L41.944 28.624C37.2933 37.328 32.9413 43.4293 28.888 46.928C24.8347 50.4267 20.056 52.176 14.552 52.176C10.1573 52.176 6.50933 50.6187 3.608 47.504C1.34667 44.9867 0.216 41.8933 0.216 38.224C0.216 37.584 0.258667 36.9227 0.344 36.24L1.56 36.432C1.51733 36.9867 1.496 37.5413 1.496 38.096C1.496 41.4667 2.49867 44.304 4.504 46.608C7.02133 49.4667 10.3707 50.896 14.552 50.896C19.7573 50.896 24.3227 49.1893 28.248 45.776C32.1733 42.3627 36.3973 36.432 40.92 27.984L51.8 8.144C47.4053 8.05866 43.2453 7.39733 39.32 6.16C35.3947 4.88 31.8107 4.24 28.568 4.24C25.3253 4.24 22.616 5.34933 20.44 7.568C18.3067 9.78666 17.24 12.6667 17.24 16.208H16.024C16.024 12.3253 17.2187 9.14666 19.608 6.672C21.9973 4.19733 25.0693 2.96 28.824 2.96C31.8107 2.96 35.4373 3.62133 39.704 4.944C44.0133 6.224 48.6213 6.864 53.528 6.864L63.768 34.704C67.1813 29.2853 69.9547 24.656 72.088 20.816C74.264 16.976 75.992 14.0533 77.272 12.048C78.5947 10.0427 79.768 8.50666 80.792 7.44C83.1387 5.05067 85.8053 3.856 88.792 3.856V5.136C87.128 5.136 85.592 5.584 84.184 6.48C82.8187 7.33333 81.368 8.80533 79.832 10.896C78.3387 12.944 76.9733 15.0133 75.736 17.104C74.4987 19.1947 72.7707 22.16 70.552 26C68.3333 29.7973 66.264 33.1893 64.344 36.176C65.5813 39.2053 66.648 41.616 67.544 43.408C68.4827 45.2 69.4427 46.608 70.424 47.632C71.448 48.656 72.7493 49.168 74.328 49.168ZM97.491 40.272C96.211 41.808 94.611 42.576 92.691 42.576C90.771 42.576 89.2563 42.0853 88.147 41.104C87.0803 40.1227 86.547 38.8427 86.547 37.264C86.547 36.7093 86.8883 34.384 87.571 30.288L89.683 18.832H86.995L87.123 17.68H89.875C93.0323 17.68 95.3577 17.552 96.851 17.296L97.747 17.104L93.331 41.296C94.611 41.168 95.6777 40.5707 96.531 39.504L97.491 40.272ZM91.859 10.96C90.963 10.064 90.515 8.976 90.515 7.696C90.515 6.416 90.963 5.328 91.859 4.432C92.755 3.49333 93.843 3.024 95.123 3.024C96.403 3.024 97.491 3.49333 98.387 4.432C99.3257 5.328 99.795 6.416 99.795 7.696C99.795 8.976 99.3257 10.064 98.387 10.96C97.491 11.856 96.403 12.304 95.123 12.304C93.843 12.304 92.755 11.856 91.859 10.96ZM125.919 41.296C126.943 41.296 128.01 40.6987 129.119 39.504L130.079 40.272C129.78 40.8693 129.119 41.4027 128.095 41.872C127.071 42.3413 125.94 42.576 124.703 42.576C120.82 42.576 118.879 40.8267 118.879 37.328C118.879 35.8347 119.263 33.168 120.031 29.328C120.799 25.488 121.183 22.9707 121.183 21.776C121.183 19.9413 120.308 19.024 118.559 19.024C117.151 19.024 115.786 19.9413 114.463 21.776C113.183 23.6107 112.116 26.128 111.263 29.328L109.087 41.296C110.41 41.168 111.498 40.5707 112.351 39.504L113.311 40.272C112.031 41.808 110.431 42.576 108.511 42.576C106.591 42.576 105.076 42.0853 103.967 41.104C102.9 40.1227 102.367 38.8427 102.367 37.264C102.367 36.6667 102.708 34.32 103.391 30.224L105.503 18.384C104.223 18.512 103.156 19.1093 102.303 20.176L101.343 19.408C102.623 17.872 104.223 17.104 106.143 17.104C108.106 17.104 109.62 17.5947 110.687 18.576C111.754 19.5573 112.287 20.944 112.287 22.736V23.12C114.036 19.1093 116.767 17.104 120.479 17.104C122.996 17.104 124.959 17.8293 126.367 19.28C127.775 20.688 128.479 22.6507 128.479 25.168C128.479 26.4907 128.074 29.0507 127.263 32.848C126.452 36.6027 126.004 39.4187 125.919 41.296ZM137.057 17.68L138.785 8.208C141.942 8.208 144.289 8.08 145.825 7.824L146.657 7.632C146.059 10.6187 145.398 13.968 144.673 17.68H152.609L152.481 18.832H144.481C142.347 29.84 141.281 36.4747 141.281 38.736C141.281 40.1013 142.006 40.784 143.457 40.784C144.907 40.784 146.23 39.8667 147.425 38.032C148.619 36.1973 149.473 34.2133 149.985 32.08L151.137 32.464C149.558 39.2053 146.294 42.576 141.345 42.576C139.297 42.576 137.59 42.0213 136.225 40.912C134.859 39.76 134.177 38.1813 134.177 36.176C134.177 34.128 135.051 28.3467 136.801 18.832H133.665L133.793 17.68H137.057ZM167.538 17.104C172.956 17.104 175.666 19.2587 175.666 23.568C175.666 26.256 174.386 28.304 171.826 29.712C169.308 31.0773 165.703 31.7813 161.01 31.824C160.924 33.36 160.882 34.576 160.882 35.472C160.882 37.392 161.308 38.8213 162.162 39.76C163.058 40.656 164.167 41.104 165.49 41.104C166.812 41.104 168.007 40.848 169.074 40.336C170.183 39.824 171.058 39.2267 171.698 38.544C172.338 37.8187 172.892 37.072 173.362 36.304C174.215 34.896 174.642 34 174.642 33.616L175.794 34.128C175.666 34.8107 175.282 35.728 174.642 36.88C174.002 37.9893 173.298 38.9067 172.53 39.632C171.762 40.3573 170.631 41.04 169.138 41.68C167.644 42.2773 165.98 42.576 164.146 42.576C160.69 42.576 158.066 41.7653 156.274 40.144C154.524 38.48 153.65 36.2187 153.65 33.36C153.65 28.2827 154.908 24.3147 157.426 21.456C159.943 18.5547 163.314 17.104 167.538 17.104ZM174.066 23.568C174.066 22.16 173.639 21.008 172.786 20.112C171.975 19.1733 170.738 18.704 169.074 18.704C167.452 18.704 165.852 19.6853 164.274 21.648C162.738 23.6107 161.714 26.512 161.202 30.352C169.778 30.3093 174.066 28.048 174.066 23.568ZM203.919 41.296C204.943 41.296 206.01 40.6987 207.119 39.504L208.079 40.272C207.78 40.8693 207.119 41.4027 206.095 41.872C205.071 42.3413 203.94 42.576 202.703 42.576C198.82 42.576 196.879 40.8267 196.879 37.328C196.879 35.8347 197.263 33.168 198.031 29.328C198.799 25.488 199.183 22.9707 199.183 21.776C199.183 19.9413 198.308 19.024 196.559 19.024C195.151 19.024 193.786 19.9413 192.463 21.776C191.183 23.6107 190.116 26.128 189.263 29.328L187.087 41.296C188.41 41.168 189.498 40.5707 190.351 39.504L191.311 40.272C190.031 41.808 188.431 42.576 186.511 42.576C184.591 42.576 183.076 42.0853 181.967 41.104C180.9 40.1227 180.367 38.8427 180.367 37.264C180.367 36.6667 180.708 34.32 181.391 30.224L183.503 18.384C182.223 18.512 181.156 19.1093 180.303 20.176L179.343 19.408C180.623 17.872 182.223 17.104 184.143 17.104C186.106 17.104 187.62 17.5947 188.687 18.576C189.754 19.5573 190.287 20.944 190.287 22.736V23.12C192.036 19.1093 194.767 17.104 198.479 17.104C200.996 17.104 202.959 17.8293 204.367 19.28C205.775 20.688 206.479 22.6507 206.479 25.168C206.479 26.4907 206.074 29.0507 205.263 32.848C204.452 36.6027 204.004 39.4187 203.919 41.296ZM233.297 42.576C229.542 42.576 227.494 40.976 227.153 37.776C225.275 40.976 222.886 42.576 219.985 42.576C217.083 42.576 214.865 41.7653 213.329 40.144C211.793 38.48 211.025 36.2187 211.025 33.36C211.025 28.3253 212.219 24.3573 214.609 21.456C216.998 18.5547 220.091 17.104 223.889 17.104C226.065 17.104 227.75 17.7653 228.945 19.088C229.457 19.7707 229.777 20.2827 229.905 20.624L233.361 1.808C232.081 1.936 231.014 2.53333 230.161 3.6L229.201 2.832C230.481 1.296 232.081 0.528 234.001 0.528C235.963 0.528 237.478 1.01867 238.545 2C239.611 2.98133 240.145 4.368 240.145 6.16C240.145 6.50133 240.102 7.056 240.017 7.824C237.926 19.5573 235.899 30.7147 233.937 41.296C235.217 41.168 236.283 40.5707 237.137 39.504L238.097 40.272C236.817 41.808 235.217 42.576 233.297 42.576ZM218.257 35.984C218.257 37.9467 218.449 39.2907 218.833 40.016C219.259 40.7413 219.899 41.104 220.753 41.104C221.649 41.104 222.502 40.8053 223.312 40.208C224.123 39.6107 224.806 38.8427 225.361 37.904C226.385 36.3253 227.11 34.9813 227.537 33.872L229.393 23.76C229.307 22.3947 228.859 21.1573 228.049 20.048C227.238 18.896 225.851 18.32 223.889 18.32C222.523 18.32 221.243 20.3253 220.049 24.336C218.854 28.3467 218.257 32.2293 218.257 35.984ZM251.699 42.576C248.414 42.576 245.918 41.7653 244.211 40.144C242.504 38.48 241.651 36.4107 241.651 33.936C241.651 31.4187 241.864 29.2853 242.291 27.536C242.76 25.744 243.507 24.0373 244.531 22.416C245.555 20.752 247.091 19.4507 249.139 18.512C251.23 17.5733 253.811 17.104 256.883 17.104C259.998 17.104 262.408 17.936 264.115 19.6C265.864 21.2213 266.739 23.4613 266.739 26.32C266.739 31.184 265.438 35.1093 262.835 38.096C260.275 41.0827 256.563 42.576 251.699 42.576ZM248.883 35.984C248.883 39.3973 249.864 41.104 251.827 41.104C253.832 41.104 255.603 39.3973 257.139 35.984C258.718 32.528 259.507 28.432 259.507 23.696C259.507 20.112 258.526 18.32 256.563 18.32C254.643 18.32 252.872 19.9627 251.251 23.248C249.672 26.4907 248.883 30.736 248.883 35.984ZM270.285 19.408C271.565 17.872 273.165 17.104 275.085 17.104C277.048 17.104 278.562 17.5947 279.629 18.576C280.696 19.5573 281.229 20.944 281.229 22.736V23.12C283.149 19.1093 285.645 17.104 288.717 17.104C292.002 17.104 293.645 18.8107 293.645 22.224C293.645 23.632 293.176 25.1253 292.237 26.704C291.298 28.2827 290.36 29.7973 289.421 31.248C288.482 32.656 288.013 33.9147 288.013 35.024H286.477C286.477 33.4453 287.394 31.312 289.229 28.624C291.064 25.936 291.981 23.8667 291.981 22.416C291.981 20.9227 291.682 19.92 291.085 19.408C290.53 18.8533 289.677 18.576 288.525 18.576C287.416 18.576 286.306 19.0667 285.197 20.048C284.13 21.0293 283.234 22.2667 282.509 23.76C281.357 25.9787 280.589 27.792 280.205 29.2V29.264L277.901 42H270.221L274.445 18.384C273.165 18.512 272.098 19.1093 271.245 20.176L270.285 19.408ZM300.98 40.912C305.204 40.912 307.316 37.7973 307.316 31.568C307.316 30.032 307.081 28.2187 306.612 26.128C306.185 24.0373 305.929 22.736 305.844 22.224C303.241 24.912 300.318 26.5333 297.076 27.088V25.552C300.148 24.8693 303.028 23.12 305.716 20.304V20.048C305.716 19.024 305.865 18.0213 306.164 17.04C306.462 16.0587 306.761 15.3333 307.06 14.864L307.508 14.16H309.044C309.044 16.0373 309.342 17.7653 309.94 19.344C310.537 20.88 311.198 22.1387 311.924 23.12C312.649 24.0587 313.31 25.3173 313.908 26.896C314.505 28.432 314.804 30.1387 314.804 32.016C314.804 35.0453 313.652 37.5627 311.348 39.568C309.086 41.5733 306.356 42.576 303.156 42.576C299.956 42.576 297.524 41.8507 295.86 40.4C294.238 38.9493 293.428 37.2853 293.428 35.408C293.428 33.488 293.897 32.1227 294.836 31.312C295.774 30.4587 296.884 30.032 298.164 30.032C299.444 30.032 300.489 30.4587 301.3 31.312C302.153 32.1227 302.58 33.1893 302.58 34.512C302.58 35.792 302.174 36.88 301.364 37.776C300.553 38.672 299.508 39.12 298.228 39.12C297.673 39.12 297.097 39.0347 296.5 38.864C297.438 40.2293 298.932 40.912 300.98 40.912Z" fill="#9C0746"/>
</svg>
